<svg width="122" height="45" viewBox="0 0 122 45" fill="none" xmlns="http://www.w3.org/2000/svg">
<g clip-path="url(#clip0_2159_3424)">
<mask id="mask0_2159_3424" style="mask-type:luminance" maskUnits="userSpaceOnUse" x="0" y="0" width="122" height="45">
<path d="M122 0H0V45H122V0Z" fill="white"/>
</mask>
<g mask="url(#mask0_2159_3424)">
<path d="M93.5698 6.65229H94.5278L96.1826 0.93869H93.5698V6.65229Z" fill="#231F20"/>
<path d="M28.0723 40.4981V3.18965C28.0723 2.59578 28.0869 2.4521 30.1335 2.30363V0.93869H25.2612L15.7828 29.2529L6.73988 0.93869H0.827365V2.24137C2.94174 2.24137 2.75304 2.65325 2.84013 3.09865V38.204C2.84013 40.4454 2.83046 42.4856 0 42.4856V43.4531H7.58176V42.4856C5.09482 42.4856 4.71259 40.5029 4.71259 38.2088V5.90517L14.5442 37.0785H15.3812L24.5645 8.90804V40.4981C24.5645 41.2979 24.0226 42.4808 21.7824 42.4808V43.4483H30.8302V42.4808C28.5852 42.4808 28.082 41.59 28.082 40.4981H28.0723Z" fill="#231F20"/>
<path d="M47.3051 0C43.1005 0 39.1185 2.61015 36.3751 7.16475C33.6318 11.6762 31.9238 17.4234 31.9238 22.16C31.9238 26.8966 33.6318 32.6724 36.3751 37.1839C39.1088 41.7241 43.0908 44.3247 47.3051 44.3247C51.5193 44.3247 55.4723 41.7241 58.206 37.1887C60.9493 32.6772 62.6524 26.9157 62.6524 22.1648C62.6524 17.4138 60.9493 11.6858 58.206 7.17433C55.4626 2.61973 51.4903 0.00478927 47.3051 0.00478927V0ZM47.3051 42.6916C40.2168 42.6916 35.9832 35.0192 35.9832 22.16C35.9832 9.30077 40.2168 1.66188 47.3051 1.66188C54.3933 1.66188 58.6269 9.32471 58.6269 22.16C58.6269 34.9952 54.3933 42.6916 47.3051 42.6916Z" fill="#231F20"/>
<path d="M64.37 2.25574C66.6973 2.42815 66.6973 2.47605 66.6973 3.27107V40.8573C66.6973 41.6858 66.6973 41.7002 64.37 41.8726V43.4435H89.8974V35.3161H88.8716L88.8474 35.8094C88.8474 39.363 83.5349 42.2174 77.7385 42.2174H72.1453C70.3309 42.2174 70.3309 42.069 70.3309 41.5182V22.4473H72.8856C80.9851 22.4473 80.7915 22.567 80.7915 27.2222L80.8157 27.7155H82.3156V16.4751H80.8157C80.8157 20.9818 79.5432 21.1255 72.8808 21.1255H70.3261V2.227H78.4255C83.6123 2.227 88.6491 2.41858 88.6491 8.30459H89.8877V0.93869H64.3604V2.25574H64.37Z" fill="#231F20"/>
<path d="M113.799 20.8477L106.459 17.8305C99.9563 15.3113 99.0758 13.386 99.0758 10.2347C99.0758 5.72796 102.1 2.65324 106.991 2.65324C113.199 2.65324 115.28 8.25669 118.023 12.6676H119.45V1.69539H118.173L116.325 6.05363C115.938 5.48849 113.03 0.933899 106.996 0.933899C100.963 0.933899 96.4775 6.01532 96.4775 10.8238C96.4775 15.6322 99.6757 18.8314 104.654 20.8812L112.275 24.023C117.839 26.183 119.571 30.1389 119.571 34.5163C119.571 39.7414 115.836 42.8831 110.262 42.8831C102.864 42.8831 100.034 37.5527 97.7017 31.8535H96.5646V44.205H97.8613L99.8064 39.5163C100.576 40.5651 103.309 45 110.233 45C117.157 45 122 39.6791 122 32.8832C122 26.0872 117.316 22.3228 113.799 20.8477Z" fill="#231F20"/>
</g>
</g>
<defs>
<clipPath id="clip0_2159_3424">
<rect width="122" height="45" fill="white"/>
</clipPath>
</defs>
</svg>
